<svg width="250" height="82" viewBox="0 0 250 82" fill="none" xmlns="http://www.w3.org/2000/svg">
<path d="M26.5784 56.9726C25.9507 56.9726 25.5004 56.7133 25.2274 56.1948C24.9545 55.6763 24.9272 55.1713 25.1456 54.6801L37.1813 26.1053C37.4816 25.3684 38.0001 25 38.737 25C39.4466 25 39.9515 25.3684 40.2517 26.1053L52.3284 54.721C52.5741 55.2396 52.5331 55.7445 52.2056 56.2357C51.9054 56.727 51.4687 56.9726 50.8956 56.9726C50.1587 56.9726 49.6538 56.6451 49.3809 55.9901L46.679 49.3581H30.795L28.0522 55.9901C27.9157 56.3176 27.711 56.5632 27.4381 56.727C27.1925 56.8907 26.9059 56.9726 26.5784 56.9726ZM31.9413 46.6153H45.5327L38.737 30.1991L31.9413 46.6153Z" fill="white"/>
<path d="M59.3769 56.9726C58.7492 56.9726 58.2852 56.7133 57.985 56.1948C57.7121 55.6763 57.6984 55.1713 57.9441 54.6801L69.9798 26.1053C70.2801 25.3684 70.785 25 71.4946 25C72.2314 25 72.75 25.3684 73.0502 26.1053L85.1269 54.721C85.3726 55.2396 85.3453 55.7445 85.0451 56.2357C84.7448 56.727 84.2945 56.9726 83.6941 56.9726C82.9845 56.9726 82.4932 56.6451 82.2203 55.9901L71.5764 30.281L60.8507 55.9901C60.7142 56.3176 60.5095 56.5632 60.2366 56.727C59.991 56.8907 59.7044 56.9726 59.3769 56.9726Z" fill="white"/>
<path d="M94.2974 56.9726C93.7788 56.9726 93.3421 56.8362 92.9874 56.5632C92.6598 56.263 92.4961 55.8673 92.4961 55.376V26.4328C92.4961 26.0235 92.6462 25.6823 92.9464 25.4094C93.2466 25.1365 93.6287 25 94.0927 25C94.5566 25 94.9387 25.1365 95.2389 25.4094C95.5392 25.6823 95.6893 26.0235 95.6893 26.4328V37.7727H104.982C106.893 37.7727 108.585 38.1821 110.059 39.0008C111.56 39.8196 112.733 40.9522 113.579 42.3987C114.425 43.8179 114.848 45.4417 114.848 47.2703C114.848 49.1807 114.425 50.8729 113.579 52.3466C112.733 53.7931 111.56 54.9257 110.059 55.7445C108.585 56.5632 106.893 56.9726 104.982 56.9726H94.2974ZM95.6893 54.066H104.982C106.292 54.066 107.452 53.7795 108.462 53.2063C109.472 52.6059 110.263 51.7871 110.836 50.75C111.409 49.7129 111.696 48.5121 111.696 47.1475C111.696 45.1279 111.068 43.5313 109.813 42.3577C108.557 41.1842 106.947 40.5974 104.982 40.5974H95.6893V54.066Z" fill="white"/>
<path d="M126.339 56.9726C125.902 56.9726 125.52 56.8225 125.193 56.5223C124.893 56.1948 124.742 55.8127 124.742 55.376V27.9066H115.04C114.604 27.9066 114.249 27.7701 113.976 27.4972C113.703 27.2243 113.566 26.8832 113.566 26.4738C113.566 26.0371 113.703 25.6823 113.976 25.4094C114.249 25.1365 114.604 25 115.04 25H137.679C138.116 25 138.47 25.1365 138.743 25.4094C139.016 25.6823 139.153 26.0371 139.153 26.4738C139.153 26.8832 139.016 27.2243 138.743 27.4972C138.47 27.7701 138.116 27.9066 137.679 27.9066H127.936V55.376C127.936 55.8127 127.786 56.1948 127.485 56.5223C127.185 56.8225 126.803 56.9726 126.339 56.9726Z" fill="white"/>
<path d="M140.676 56.9726C140.048 56.9726 139.598 56.7133 139.325 56.1948C139.052 55.6763 139.025 55.1713 139.243 54.6801L151.279 26.1053C151.579 25.3684 152.098 25 152.835 25C153.544 25 154.049 25.3684 154.349 26.1053L166.426 54.721C166.672 55.2396 166.631 55.7445 166.303 56.2357C166.003 56.727 165.566 56.9726 164.993 56.9726C164.256 56.9726 163.751 56.6451 163.479 55.9901L160.777 49.3581H144.893L142.15 55.9901C142.013 56.3176 141.809 56.5632 141.536 56.727C141.29 56.8907 141.004 56.9726 140.676 56.9726ZM146.039 46.6153H159.63L152.835 30.1991L146.039 46.6153Z" fill="white"/>
<path d="M171.911 56.9726C171.474 56.9726 171.092 56.8225 170.765 56.5223C170.437 56.2221 170.273 55.84 170.273 55.376V26.5966C170.273 26.1326 170.437 25.7505 170.765 25.4503C171.092 25.1501 171.474 25 171.911 25C172.375 25 172.743 25.1501 173.016 25.4503C173.316 25.7505 173.467 26.1326 173.467 26.5966V51.7325L193.895 25.5731C194.195 25.191 194.604 25 195.123 25C195.587 25 195.969 25.1501 196.269 25.4503C196.569 25.7505 196.719 26.1326 196.719 26.5966V55.376C196.719 55.84 196.569 56.2221 196.269 56.5223C195.969 56.8225 195.587 56.9726 195.123 56.9726C194.659 56.9726 194.277 56.8225 193.977 56.5223C193.676 56.2221 193.526 55.84 193.526 55.376V30.281L173.098 56.4404C172.825 56.7952 172.43 56.9726 171.911 56.9726Z" fill="white"/>
<path d="M205.975 56.9726C205.512 56.9726 205.129 56.8225 204.829 56.5223C204.529 56.2221 204.379 55.84 204.379 55.376V26.5966C204.379 26.1326 204.529 25.7505 204.829 25.4503C205.129 25.1501 205.512 25 205.975 25H214.163C216.183 25 217.97 25.4503 219.526 26.351C221.082 27.2243 222.296 28.4388 223.169 29.9944C224.043 31.5501 224.479 33.3514 224.479 35.3983C224.479 37.3906 224.043 39.1646 223.169 40.7202C222.296 42.2486 221.082 43.4631 219.526 44.3637C217.97 45.237 216.183 45.6737 214.163 45.6737H207.572V55.376C207.572 55.84 207.422 56.2221 207.122 56.5223C206.822 56.8225 206.439 56.9726 205.975 56.9726ZM207.572 42.6034H214.163C215.555 42.6034 216.797 42.3032 217.888 41.7027C218.98 41.075 219.826 40.2153 220.427 39.1236C221.054 38.0319 221.368 36.7902 221.368 35.3983C221.368 33.9518 221.054 32.6827 220.427 31.591C219.826 30.4993 218.98 29.6396 217.888 29.0119C216.797 28.3842 215.555 28.0704 214.163 28.0704H207.572V42.6034Z" fill="white"/>
<g filter="url(#filter0_f_1791_1092)">
<path d="M26.5784 56.9726C25.9507 56.9726 25.5004 56.7133 25.2274 56.1948C24.9545 55.6763 24.9272 55.1713 25.1456 54.6801L37.1813 26.1053C37.4816 25.3684 38.0001 25 38.737 25C39.4466 25 39.9515 25.3684 40.2517 26.1053L52.3284 54.721C52.5741 55.2396 52.5331 55.7445 52.2056 56.2357C51.9054 56.727 51.4687 56.9726 50.8956 56.9726C50.1587 56.9726 49.6538 56.6451 49.3809 55.9901L46.679 49.3581H30.795L28.0522 55.9901C27.9157 56.3176 27.711 56.5632 27.4381 56.727C27.1925 56.8907 26.9059 56.9726 26.5784 56.9726ZM31.9413 46.6153H45.5327L38.737 30.1991L31.9413 46.6153Z" fill="white"/>
<path d="M59.3769 56.9726C58.7492 56.9726 58.2852 56.7133 57.985 56.1948C57.7121 55.6763 57.6984 55.1713 57.9441 54.6801L69.9798 26.1053C70.2801 25.3684 70.785 25 71.4946 25C72.2314 25 72.75 25.3684 73.0502 26.1053L85.1269 54.721C85.3726 55.2396 85.3453 55.7445 85.0451 56.2357C84.7448 56.727 84.2945 56.9726 83.6941 56.9726C82.9845 56.9726 82.4932 56.6451 82.2203 55.9901L71.5764 30.281L60.8507 55.9901C60.7142 56.3176 60.5095 56.5632 60.2366 56.727C59.991 56.8907 59.7044 56.9726 59.3769 56.9726Z" fill="white"/>
<path d="M94.2974 56.9726C93.7788 56.9726 93.3421 56.8362 92.9874 56.5632C92.6598 56.263 92.4961 55.8673 92.4961 55.376V26.4328C92.4961 26.0235 92.6462 25.6823 92.9464 25.4094C93.2466 25.1365 93.6287 25 94.0927 25C94.5566 25 94.9387 25.1365 95.2389 25.4094C95.5392 25.6823 95.6893 26.0235 95.6893 26.4328V37.7727H104.982C106.893 37.7727 108.585 38.1821 110.059 39.0008C111.56 39.8196 112.733 40.9522 113.579 42.3987C114.425 43.8179 114.848 45.4417 114.848 47.2703C114.848 49.1807 114.425 50.8729 113.579 52.3466C112.733 53.7931 111.56 54.9257 110.059 55.7445C108.585 56.5632 106.893 56.9726 104.982 56.9726H94.2974ZM95.6893 54.066H104.982C106.292 54.066 107.452 53.7795 108.462 53.2063C109.472 52.6059 110.263 51.7871 110.836 50.75C111.409 49.7129 111.696 48.5121 111.696 47.1475C111.696 45.1279 111.068 43.5313 109.813 42.3577C108.557 41.1842 106.947 40.5974 104.982 40.5974H95.6893V54.066Z" fill="white"/>
<path d="M126.339 56.9726C125.902 56.9726 125.52 56.8225 125.193 56.5223C124.893 56.1948 124.742 55.8127 124.742 55.376V27.9066H115.04C114.604 27.9066 114.249 27.7701 113.976 27.4972C113.703 27.2243 113.566 26.8832 113.566 26.4738C113.566 26.0371 113.703 25.6823 113.976 25.4094C114.249 25.1365 114.604 25 115.04 25H137.679C138.116 25 138.47 25.1365 138.743 25.4094C139.016 25.6823 139.153 26.0371 139.153 26.4738C139.153 26.8832 139.016 27.2243 138.743 27.4972C138.47 27.7701 138.116 27.9066 137.679 27.9066H127.936V55.376C127.936 55.8127 127.786 56.1948 127.485 56.5223C127.185 56.8225 126.803 56.9726 126.339 56.9726Z" fill="white"/>
<path d="M140.676 56.9726C140.048 56.9726 139.598 56.7133 139.325 56.1948C139.052 55.6763 139.025 55.1713 139.243 54.6801L151.279 26.1053C151.579 25.3684 152.098 25 152.835 25C153.544 25 154.049 25.3684 154.349 26.1053L166.426 54.721C166.672 55.2396 166.631 55.7445 166.303 56.2357C166.003 56.727 165.566 56.9726 164.993 56.9726C164.256 56.9726 163.751 56.6451 163.479 55.9901L160.777 49.3581H144.893L142.15 55.9901C142.013 56.3176 141.809 56.5632 141.536 56.727C141.29 56.8907 141.004 56.9726 140.676 56.9726ZM146.039 46.6153H159.63L152.835 30.1991L146.039 46.6153Z" fill="white"/>
<path d="M171.911 56.9726C171.474 56.9726 171.092 56.8225 170.765 56.5223C170.437 56.2221 170.273 55.84 170.273 55.376V26.5966C170.273 26.1326 170.437 25.7505 170.765 25.4503C171.092 25.1501 171.474 25 171.911 25C172.375 25 172.743 25.1501 173.016 25.4503C173.316 25.7505 173.467 26.1326 173.467 26.5966V51.7325L193.895 25.5731C194.195 25.191 194.604 25 195.123 25C195.587 25 195.969 25.1501 196.269 25.4503C196.569 25.7505 196.719 26.1326 196.719 26.5966V55.376C196.719 55.84 196.569 56.2221 196.269 56.5223C195.969 56.8225 195.587 56.9726 195.123 56.9726C194.659 56.9726 194.277 56.8225 193.977 56.5223C193.676 56.2221 193.526 55.84 193.526 55.376V30.281L173.098 56.4404C172.825 56.7952 172.43 56.9726 171.911 56.9726Z" fill="white"/>
<path d="M205.975 56.9726C205.512 56.9726 205.129 56.8225 204.829 56.5223C204.529 56.2221 204.379 55.84 204.379 55.376V26.5966C204.379 26.1326 204.529 25.7505 204.829 25.4503C205.129 25.1501 205.512 25 205.975 25H214.163C216.183 25 217.97 25.4503 219.526 26.351C221.082 27.2243 222.296 28.4388 223.169 29.9944C224.043 31.5501 224.479 33.3514 224.479 35.3983C224.479 37.3906 224.043 39.1646 223.169 40.7202C222.296 42.2486 221.082 43.4631 219.526 44.3637C217.97 45.237 216.183 45.6737 214.163 45.6737H207.572V55.376C207.572 55.84 207.422 56.2221 207.122 56.5223C206.822 56.8225 206.439 56.9726 205.975 56.9726ZM207.572 42.6034H214.163C215.555 42.6034 216.797 42.3032 217.888 41.7027C218.98 41.075 219.826 40.2153 220.427 39.1236C221.054 38.0319 221.368 36.7902 221.368 35.3983C221.368 33.9518 221.054 32.6827 220.427 31.591C219.826 30.4993 218.98 29.6396 217.888 29.0119C216.797 28.3842 215.555 28.0704 214.163 28.0704H207.572V42.6034Z" fill="white"/>
</g>
<defs>
<filter id="filter0_f_1791_1092" x="0" y="0" width="249.48" height="81.9727" filterUnits="userSpaceOnUse" color-interpolation-filters="sRGB">
<feFlood flood-opacity="0" result="BackgroundImageFix"/>
<feBlend mode="normal" in="SourceGraphic" in2="BackgroundImageFix" result="shape"/>
<feGaussianBlur stdDeviation="12.5" result="effect1_foregroundBlur_1791_1092"/>
</filter>
</defs>
</svg>
