<svg width="1886" height="112" viewBox="0 0 1886 112" fill="none" xmlns="http://www.w3.org/2000/svg">
<circle cx="1351" cy="9" r="3" fill="white"/>
<circle cx="1227" cy="61" r="3" fill="white"/>
<circle cx="1421.5" cy="47.5" r="1.5" fill="white"/>
<circle cx="1234.5" cy="7.5" r="1.5" fill="white"/>
<circle cx="1316.5" cy="95.5" r="1.5" fill="white"/>
<circle cx="949" cy="10" r="3" fill="white"/>
<circle cx="800" cy="33" r="3" fill="white"/>
<circle cx="1027.5" cy="45.5" r="1.5" fill="white"/>
<circle cx="832.5" cy="8.5" r="1.5" fill="white"/>
<circle cx="914.5" cy="96.5" r="1.5" fill="white"/>
<circle cx="697" cy="3" r="3" fill="white"/>
<circle cx="525" cy="27" r="3" fill="white"/>
<circle cx="767.5" cy="41.5" r="1.5" fill="white"/>
<circle cx="580.5" cy="1.5" r="1.5" fill="white"/>
<circle cx="662.5" cy="89.5" r="1.5" fill="white"/>
<circle cx="295" cy="4" r="3" fill="white"/>
<circle cx="87" cy="41" r="3" fill="white"/>
<circle cx="373.5" cy="39.5" r="1.5" fill="white"/>
<circle cx="178.5" cy="2.5" r="1.5" fill="white"/>
<circle cx="260.5" cy="90.5" r="1.5" fill="white"/>
<circle cx="1.5" cy="41.5" r="1.5" fill="white"/>
<circle cx="1687" cy="24" r="3" fill="white"/>
<circle cx="1867" cy="8" r="3" fill="white"/>
<circle cx="1538" cy="47" r="3" fill="white"/>
<circle cx="1884.5" cy="66.5" r="1.5" fill="white"/>
<circle cx="1481.5" cy="107.5" r="1.5" fill="white"/>
<circle cx="1570.5" cy="22.5" r="1.5" fill="white"/>
<circle cx="1652.5" cy="110.5" r="1.5" fill="white"/>
</svg>
