<svg width="342" height="342" viewBox="0 0 342 342" fill="none" xmlns="http://www.w3.org/2000/svg">
<rect x="170.887" width="241.673" height="241.673" transform="rotate(45 170.887 0)" fill="#005CE6"/>
<path fill-rule="evenodd" clip-rule="evenodd" d="M232.967 105.956C232.822 104.768 232.211 103.687 231.267 102.951C230.323 102.215 229.126 101.886 227.939 102.035C194.958 106.184 177.927 120.5 170.863 137.701C164.287 153.711 166.793 171.185 171.185 182.963C168.302 190.807 166.195 198.241 164.717 205.07C163.446 201.187 162.034 197.477 160.503 193.936C162.534 181.619 162.141 164.109 153.787 150.652C149.369 143.536 142.756 137.624 133.346 134.355C124.009 131.112 112.237 130.581 97.5936 133.592C95.364 134.051 93.8279 136.102 94.0155 138.371C94.8488 148.45 98.8726 163.436 108.359 176.021C117.552 188.217 131.852 198.083 152.85 198.94C157.222 209.428 160.509 221.556 162.027 235.488C162.294 237.937 164.48 239.716 166.932 239.479C169.384 239.243 171.191 237.078 170.984 234.623C170.188 225.137 171.76 207.973 179.207 187.239C203.858 185.219 218.251 171.5 225.904 155.076C233.714 138.316 234.534 118.814 232.967 105.956ZM203.121 169.662C197.751 173.588 191.119 176.45 182.942 177.738C184.151 174.909 185.468 172.032 186.901 169.116L203.121 169.662ZM210.383 162.903L190.463 162.232C192.384 158.703 194.476 155.129 196.751 151.525L218.337 149.967C218.145 150.405 217.948 150.841 217.746 151.274C215.805 155.44 213.386 159.381 210.383 162.903ZM223.403 132.377C222.833 135.835 222.043 139.326 220.993 142.757L201.64 144.154C204.053 140.686 206.641 137.2 209.415 133.711L223.403 132.377ZM215.787 126.071C218.568 122.891 221.511 119.715 224.623 116.554C224.644 119.332 224.541 122.257 224.287 125.261L215.787 126.071ZM208.301 120.963C210.415 118.522 212.619 116.084 214.916 113.654C212.292 114.348 209.836 115.125 207.538 115.974L208.301 120.963ZM202.322 128.17L200.895 118.838C196.961 120.805 193.609 123.021 190.763 125.412L194.47 138.702C196.915 135.201 199.53 131.686 202.322 128.17ZM178.062 144.205C178.395 143.168 178.769 142.139 179.188 141.12C180.588 137.712 182.511 134.346 185.098 131.155L189.348 146.393C187.209 149.767 185.222 153.119 183.378 156.439L178.062 144.205ZM179.2 164.385C178.36 166.075 177.557 167.754 176.79 169.42C176.072 165.413 175.712 161.128 175.891 156.773L179.2 164.385ZM148.676 160.312C151.078 165.963 152.209 172.291 152.47 178.444C150.885 175.857 149.24 173.392 147.548 171.044L148.676 160.312ZM131.547 143.281C136.132 145.063 139.767 147.647 142.641 150.772L141.338 163.162C137.647 158.871 133.829 155.069 130.01 151.729L131.547 143.281ZM123.811 146.697C120.722 144.374 117.677 142.349 114.745 140.609C118.452 140.558 121.784 140.84 124.776 141.39L123.811 146.697ZM107.442 155.984C105.954 152.225 104.871 148.526 104.13 145.113C108.145 147.037 112.65 149.675 117.333 153.097L107.442 155.984ZM121.433 177.186C119.246 175.134 117.291 172.919 115.546 170.604C113.565 167.976 111.854 165.216 110.386 162.416L124.011 158.439C128.399 162.269 132.812 166.786 137.012 172.045L121.433 177.186ZM141.416 177.963C143.891 181.535 146.252 185.397 148.443 189.561C140.366 188.572 133.643 185.972 128.058 182.371L141.416 177.963Z" fill="white"/>
</svg>
