<svg width="132" height="129" viewBox="0 0 132 129" fill="none" xmlns="http://www.w3.org/2000/svg">
<g filter="url(#filter0_d_1972_824)">
<path d="M57.5614 1.76643C59.9166 -0.58881 63.7363 -0.58881 66.0916 1.76643L117.886 53.5605C120.242 55.9169 120.242 59.7355 117.886 62.0919L99.143 80.8345H106.551C109.883 80.8345 112.584 83.5353 112.584 86.8669V106.171C112.584 109.502 109.883 112.203 106.551 112.203H16.6681C13.3365 112.203 10.6357 109.502 10.6357 106.171V86.8669C10.6357 83.5353 13.3365 80.8345 16.6681 80.8345H24.51L5.76731 62.0919C3.4109 59.7355 3.4109 55.9169 5.76731 53.5605L57.5614 1.76643Z" fill="white"/>
</g>
<path d="M61.8242 33.8672L37.6943 57.9971L61.8242 57.9971L61.8242 33.8672Z" fill="#FF5B8B"/>
<path d="M61.8242 33.8672L85.9541 57.9971L61.8242 57.9971L61.8242 33.8672Z" fill="#005CE6"/>
<path d="M85.957 57.9961L61.8271 33.8662L85.957 33.8662L85.957 57.9961Z" fill="#FFC548"/>
<path d="M37.6953 57.9961L61.8252 33.8662L37.6953 33.8662L37.6953 57.9961Z" fill="#00E8CD"/>
<path d="M37.6953 33.868L61.825 9.73828L85.9547 33.868H37.6953Z" fill="#121A66"/>
<path d="M85.9562 33.8672L110.086 57.9969L85.9562 82.1266L85.9562 33.8672Z" fill="#121A66"/>
<path d="M37.6961 33.8672L13.5664 57.9969L37.6961 82.1266L37.6961 33.8672Z" fill="#121A66"/>
<path d="M61.8266 57.9961C61.8266 64.6593 56.2028 70.0609 49.7617 70.0609C56.2028 70.0609 61.8266 75.4626 61.8266 82.1258C61.8266 75.4626 67.4503 70.0609 73.8914 70.0609C67.4503 70.0609 61.8266 64.6593 61.8266 57.9961Z" fill="#121A66"/>
<path d="M18.2173 103.239C17.9398 103.239 17.7407 103.125 17.6201 102.896C17.4994 102.666 17.4874 102.443 17.5839 102.226L22.9045 89.5941C23.0372 89.2683 23.2664 89.1055 23.5922 89.1055C23.9059 89.1055 24.1291 89.2683 24.2618 89.5941L29.6005 102.244C29.7091 102.473 29.691 102.697 29.5462 102.914C29.4135 103.131 29.2204 103.239 28.9671 103.239C28.6413 103.239 28.4181 103.095 28.2975 102.805L27.103 99.8734H20.0813L18.8688 102.805C18.8085 102.95 18.718 103.058 18.5973 103.131C18.4887 103.203 18.3621 103.239 18.2173 103.239ZM20.588 98.6608H26.5963L23.5922 91.4038L20.588 98.6608Z" fill="black"/>
<path d="M32.7145 103.239C32.437 103.239 32.2319 103.125 32.0992 102.896C31.9785 102.666 31.9725 102.443 32.0811 102.226L37.4017 89.5941C37.5344 89.2683 37.7576 89.1055 38.0713 89.1055C38.397 89.1055 38.6262 89.2683 38.759 89.5941L44.0977 102.244C44.2062 102.473 44.1942 102.697 44.0615 102.914C43.9287 103.131 43.7297 103.239 43.4642 103.239C43.1506 103.239 42.9334 103.095 42.8127 102.805L38.1075 91.44L33.366 102.805C33.3056 102.95 33.2152 103.058 33.0945 103.131C32.9859 103.203 32.8592 103.239 32.7145 103.239Z" fill="black"/>
<path d="M48.1439 103.239C47.9147 103.239 47.7217 103.179 47.5648 103.058C47.42 102.926 47.3477 102.751 47.3477 102.534V89.7389C47.3477 89.5579 47.414 89.4071 47.5467 89.2864C47.6794 89.1658 47.8483 89.1055 48.0535 89.1055C48.2586 89.1055 48.4275 89.1658 48.5602 89.2864C48.6929 89.4071 48.7592 89.5579 48.7592 89.7389V94.7518H52.8673C53.7119 94.7518 54.4599 94.9328 55.1114 95.2947C55.775 95.6567 56.2937 96.1574 56.6678 96.7968C57.0418 97.4242 57.2288 98.142 57.2288 98.9504C57.2288 99.7949 57.0418 100.543 56.6678 101.194C56.2937 101.834 55.775 102.335 55.1114 102.697C54.4599 103.058 53.7119 103.239 52.8673 103.239H48.1439ZM48.7592 101.955H52.8673C53.4464 101.955 53.9592 101.828 54.4056 101.574C54.852 101.309 55.2019 100.947 55.4552 100.489C55.7086 100.03 55.8353 99.4993 55.8353 98.8961C55.8353 98.0033 55.5578 97.2975 55.0028 96.7787C54.4478 96.2599 53.736 96.0005 52.8673 96.0005H48.7592V101.955Z" fill="black"/>
<path d="M62.3143 103.239C62.1213 103.239 61.9524 103.173 61.8076 103.04C61.6749 102.896 61.6085 102.727 61.6085 102.534V90.3904H57.3195C57.1264 90.3904 56.9696 90.3301 56.8489 90.2094C56.7283 90.0888 56.668 89.9379 56.668 89.757C56.668 89.5639 56.7283 89.4071 56.8489 89.2864C56.9696 89.1658 57.1264 89.1055 57.3195 89.1055H67.3273C67.5203 89.1055 67.6771 89.1658 67.7978 89.2864C67.9184 89.4071 67.9788 89.5639 67.9788 89.757C67.9788 89.9379 67.9184 90.0888 67.7978 90.2094C67.6771 90.3301 67.5203 90.3904 67.3273 90.3904H63.0201V102.534C63.0201 102.727 62.9538 102.896 62.821 103.04C62.6883 103.173 62.5194 103.239 62.3143 103.239Z" fill="black"/>
<path d="M67.6821 103.239C67.4046 103.239 67.2056 103.125 67.0849 102.896C66.9643 102.666 66.9522 102.443 67.0487 102.226L72.3693 89.5941C72.502 89.2683 72.7313 89.1055 73.057 89.1055C73.3707 89.1055 73.5939 89.2683 73.7266 89.5941L79.0653 102.244C79.1739 102.473 79.1558 102.697 79.011 102.914C78.8783 103.131 78.6853 103.239 78.4319 103.239C78.1062 103.239 77.883 103.095 77.7623 102.805L76.5679 99.8734H69.5461L68.3336 102.805C68.2733 102.95 68.1828 103.058 68.0622 103.131C67.9536 103.203 67.8269 103.239 67.6821 103.239ZM70.0529 98.6608H76.0612L73.057 91.4038L70.0529 98.6608Z" fill="black"/>
<path d="M82.4583 103.239C82.2652 103.239 82.0963 103.173 81.9515 103.04C81.8068 102.908 81.7344 102.739 81.7344 102.534V89.8113C81.7344 89.6062 81.8068 89.4373 81.9515 89.3045C82.0963 89.1718 82.2652 89.1055 82.4583 89.1055C82.6634 89.1055 82.8262 89.1718 82.9469 89.3045C83.0796 89.4373 83.146 89.6062 83.146 89.8113V100.923L92.1765 89.3588C92.3092 89.1899 92.4902 89.1055 92.7194 89.1055C92.9245 89.1055 93.0934 89.1718 93.2261 89.3045C93.3589 89.4373 93.4252 89.6062 93.4252 89.8113V102.534C93.4252 102.739 93.3589 102.908 93.2261 103.04C93.0934 103.173 92.9245 103.239 92.7194 103.239C92.5143 103.239 92.3454 103.173 92.2127 103.04C92.08 102.908 92.0136 102.739 92.0136 102.534V91.44L82.9831 103.004C82.8624 103.161 82.6875 103.239 82.4583 103.239Z" fill="black"/>
<path d="M97.5222 103.239C97.3171 103.239 97.1482 103.173 97.0155 103.04C96.8828 102.908 96.8164 102.739 96.8164 102.534V89.8113C96.8164 89.6062 96.8828 89.4373 97.0155 89.3045C97.1482 89.1718 97.3171 89.1055 97.5222 89.1055H101.142C102.034 89.1055 102.825 89.3045 103.512 89.7027C104.2 90.0888 104.737 90.6256 105.123 91.3133C105.509 92.001 105.702 92.7973 105.702 93.7022C105.702 94.5829 105.509 95.3671 105.123 96.0548C104.737 96.7305 104.2 97.2673 103.512 97.6655C102.825 98.0516 102.034 98.2446 101.142 98.2446H98.228V102.534C98.228 102.739 98.1616 102.908 98.0289 103.04C97.8962 103.173 97.7273 103.239 97.5222 103.239ZM98.228 96.8873H101.142C101.757 96.8873 102.306 96.7546 102.789 96.4892C103.271 96.2117 103.645 95.8316 103.911 95.349C104.188 94.8664 104.327 94.3175 104.327 93.7022C104.327 93.0627 104.188 92.5017 103.911 92.0191C103.645 91.5365 103.271 91.1565 102.789 90.879C102.306 90.6015 101.757 90.4628 101.142 90.4628H98.228V96.8873Z" fill="black"/>
<path d="M23.2167 55.687C23.2167 56.1246 23.5818 56.4794 24.0322 56.4794C24.4825 56.4794 24.8477 56.1246 24.8477 55.687C24.8477 55.2493 24.4825 54.8945 24.0322 54.8945C23.5818 54.8945 23.2167 55.2493 23.2167 55.687Z" fill="white"/>
<path d="M30.5574 64.009C30.5574 64.6654 31.1051 65.1976 31.7807 65.1976C32.4562 65.1976 33.0039 64.6654 33.0039 64.009C33.0039 63.3525 32.4562 62.8203 31.7807 62.8203C31.1051 62.8203 30.5574 63.3525 30.5574 64.009Z" fill="white"/>
<path d="M65.6238 23.5949C65.6238 24.2514 66.1715 24.7835 66.8471 24.7835C67.5227 24.7835 68.0703 24.2514 68.0703 23.5949C68.0703 22.9384 67.5227 22.4062 66.8471 22.4062C66.1715 22.4062 65.6238 22.9384 65.6238 23.5949Z" fill="white"/>
<path d="M94.1659 48.5581C94.1659 48.9957 94.531 49.3505 94.9814 49.3505C95.4318 49.3505 95.7969 48.9957 95.7969 48.5581C95.7969 48.1204 95.4318 47.7656 94.9814 47.7656C94.531 47.7656 94.1659 48.1204 94.1659 48.5581Z" fill="white"/>
<path d="M88.4568 67.5731C88.4568 68.4484 89.187 69.158 90.0878 69.158C90.9885 69.158 91.7188 68.4484 91.7188 67.5731C91.7188 66.6978 90.9885 65.9883 90.0878 65.9883C89.187 65.9883 88.4568 66.6978 88.4568 67.5731Z" fill="white"/>
<defs>
<filter id="filter0_d_1972_824" x="0" y="0" width="131.652" height="128.203" filterUnits="userSpaceOnUse" color-interpolation-filters="sRGB">
<feFlood flood-opacity="0" result="BackgroundImageFix"/>
<feColorMatrix in="SourceAlpha" type="matrix" values="0 0 0 0 0 0 0 0 0 0 0 0 0 0 0 0 0 0 127 0" result="hardAlpha"/>
<feOffset dx="4" dy="8"/>
<feGaussianBlur stdDeviation="4"/>
<feComposite in2="hardAlpha" operator="out"/>
<feColorMatrix type="matrix" values="0 0 0 0 0 0 0 0 0 0 0 0 0 0 0 0 0 0 0.5 0"/>
<feBlend mode="normal" in2="BackgroundImageFix" result="effect1_dropShadow_1972_824"/>
<feBlend mode="normal" in="SourceGraphic" in2="effect1_dropShadow_1972_824" result="shape"/>
</filter>
</defs>
</svg>
