<svg width="342" height="342" viewBox="0 0 342 342" fill="none" xmlns="http://www.w3.org/2000/svg">
<rect x="170.887" width="241.673" height="241.673" transform="rotate(45 170.887 0)" fill="#FF5B8B"/>
<path fill-rule="evenodd" clip-rule="evenodd" d="M100.035 90.8569L100.03 90.8556C98.9944 90.5465 97.8762 90.6884 96.9459 91.247C96.0155 91.8056 95.3577 92.7302 95.1313 93.7973L98.9205 94.6039C95.1313 93.7973 95.131 93.7987 95.1306 93.8005L95.1295 93.8058L95.1259 93.8228L95.1136 93.8817C95.1032 93.9321 95.0883 94.0044 95.0693 94.0983C95.0313 94.286 94.9767 94.5596 94.9084 94.9147C94.7716 95.6248 94.5794 96.6609 94.3529 97.9871C93.8999 100.639 93.309 104.454 92.7497 109.144C91.6323 118.516 90.6351 131.429 91.1304 145.568C92.1119 173.59 99.0005 207.602 123.839 227.574C124.855 228.391 126.211 228.637 127.449 228.231C141.96 223.468 153.596 214.614 162.906 203.896C169.739 227.893 182.384 252.95 205.913 265.974C207.054 266.605 208.432 266.617 209.583 266.005C238.914 250.406 251.529 218.053 256.942 190.581C259.67 176.738 260.626 163.86 260.903 154.453C261.041 149.745 261.01 145.892 260.943 143.207C260.91 141.864 260.868 140.812 260.834 140.09C260.817 139.728 260.802 139.45 260.791 139.258C260.785 139.162 260.78 139.088 260.777 139.037L260.773 138.976L260.772 138.958L260.772 138.953C260.772 138.951 260.772 138.949 256.907 139.215L260.772 138.949C260.699 137.882 260.197 136.89 259.381 136.207C258.565 135.523 257.507 135.207 256.453 135.333L256.122 135.371C255.902 135.397 255.575 135.435 255.151 135.483C254.303 135.579 253.068 135.717 251.525 135.883C248.439 136.214 244.123 136.656 239.211 137.098C229.354 137.985 217.214 138.86 207.776 138.86C203.707 138.86 199.135 138.697 194.459 138.441C195.521 134.299 196.381 130.47 197.071 127.086C198.012 122.47 198.639 118.669 199.032 116.012C199.229 114.683 199.367 113.639 199.457 112.922C199.501 112.563 199.534 112.286 199.556 112.095C199.563 112.035 199.569 111.984 199.573 111.941C199.576 111.916 199.579 111.894 199.581 111.874L199.587 111.814L199.589 111.797L199.59 111.791C199.59 111.789 199.59 111.788 195.736 111.389L199.59 111.788C199.701 110.723 199.375 109.661 198.688 108.848C198.001 108.035 197.011 107.543 195.952 107.486L195.949 107.486L195.933 107.485L195.871 107.482L195.62 107.468C195.399 107.456 195.07 107.437 194.644 107.412C193.792 107.362 192.552 107.287 191.003 107.187C187.905 106.986 183.578 106.684 178.663 106.281C168.799 105.47 156.688 104.259 147.389 102.646C138.091 101.034 126.278 98.0983 116.718 95.5408C111.953 94.2663 107.777 93.0937 104.792 92.2399C103.3 91.813 102.107 91.4662 101.288 91.2264C100.879 91.1065 100.563 91.0134 100.35 90.9504L100.109 90.8791L100.049 90.8612L100.035 90.8569ZM192.34 146.152C190.856 151.199 189.09 156.547 186.997 162.006C185.497 165.916 183.82 169.906 181.947 173.9C189.228 172.686 197.21 175.155 203.399 182.151L197.619 187.358C191.025 179.904 182.127 179.961 176.298 184.81C174.053 188.738 171.595 192.6 168.905 196.319C174.948 220.459 186.412 245.23 207.816 258.067C232.674 243.79 244.184 215.234 249.343 189.056C251.964 175.754 252.89 163.329 253.158 154.221C253.289 149.768 253.262 146.12 253.202 143.566C252.928 143.596 252.642 143.626 252.345 143.658C249.225 143.993 244.865 144.44 239.899 144.887C230 145.777 217.575 146.679 207.776 146.679C203.049 146.679 197.711 146.469 192.34 146.152ZM100.444 110.054C100.967 105.668 101.518 102.083 101.945 99.5571C102.174 99.6228 102.411 99.6908 102.656 99.7609C105.673 100.624 109.893 101.809 114.709 103.097C124.311 105.666 136.399 108.677 146.053 110.351C155.708 112.025 168.104 113.258 178.01 114.072C182.979 114.48 187.352 114.785 190.483 114.988C190.781 115.007 191.068 115.026 191.343 115.043C190.966 117.57 190.369 121.169 189.479 125.534C187.659 134.463 184.625 146.546 179.77 159.205C170.215 184.118 153.996 210.288 127.064 220.108C106.287 202.18 99.8152 172.089 98.8757 145.268C98.3985 131.642 99.36 119.149 100.444 110.054ZM159.482 173.853C143.56 186.321 122.133 182.606 111.337 165.506L104.796 169.719C118.039 190.695 144.692 195.316 164.223 180.022L159.482 173.853ZM104.659 140.135C109.749 140.872 113.868 141.836 117.417 143.788C120.873 145.69 124.038 148.673 126.908 153.88L133.685 150.066C130.19 143.727 126.03 139.611 121.145 136.923C116.353 134.287 111.117 133.17 105.784 132.397L104.659 140.135ZM163.304 151.744C167.303 151.1 171.506 151.58 176.547 152.599L178.093 144.934C172.81 143.866 167.504 143.155 162.104 144.025C156.6 144.911 151.297 147.386 145.873 152.179L150.969 158.052C155.425 154.115 159.41 152.371 163.304 151.744ZM182.992 221.464C196.551 206.459 218.297 206.459 231.856 221.464L237.581 216.195C220.949 197.79 193.899 197.79 177.267 216.195L182.992 221.464ZM241.686 187.182C236.153 180.132 225.602 178.836 218.063 187.358L212.283 182.151C223.06 169.968 239.274 171.514 247.76 182.327L241.686 187.182Z" fill="white"/>
</svg>
