<svg width="1920" height="206" viewBox="0 0 1920 206" fill="none" xmlns="http://www.w3.org/2000/svg">
<path d="M1793 55L1783 45L1793 45L1793 55Z" fill="#005CE6"/>
<path d="M1814 130L1844 160L1814 160L1814 130Z" fill="#005CE6"/>
<path d="M1897 160L1920 137L1920 160L1897 160Z" fill="#FFC548"/>
<path d="M1909 91L1886 114L1886 91L1909 91Z" fill="#FFC548"/>
<path d="M1797 107L1783 121L1783 107L1797 107Z" fill="#FFC548"/>
<path d="M1897 206L1920 183L1920 206L1897 206Z" fill="#FFC548"/>
<path d="M1868 206L1887 187L1887 206L1868 206Z" fill="#FF5B8B"/>
<path d="M1636 76L1645 85H1636V76Z" fill="#FF5B8B"/>
<path d="M1840 82L1863 59L1863 82L1840 82Z" fill="#FF5B8B"/>
<path d="M1913 185L1894 166L1913 166L1913 185Z" fill="#00E8CD"/>
<path d="M1728 36L1737 45H1728V36Z" fill="#00E8CD"/>
<path d="M1709 148L1717 140L1717 148L1709 148Z" fill="#005CE6"/>
<path d="M1709 144L1696 157L1696 144L1709 144Z" fill="#00E8CD"/>
<path d="M39 0.00391128L19 19.0039L19 0.0039104L39 0.00391128Z" fill="#FFC548"/>
<path d="M44 26L54 15L54 26L44 26Z" fill="#FF5B8B"/>
<path d="M90.5 0L67.5 23L67.5 3.01609e-06L90.5 0Z" fill="#005CE6"/>
<path d="M2.91063e-06 4.0039L11 15.0039L2.91063e-06 15.0039L2.91063e-06 4.0039Z" fill="#005CE6"/>
<path d="M74 141L84 131L84 141L74 141Z" fill="#FF5B8B"/>
<path d="M13 121L1.55023e-07 134L0 121L13 121Z" fill="#00E8CD"/>
<path d="M151 36L164 23L164 36L151 36Z" fill="#00E8CD"/>
<path d="M138 69L148 59L148 69L138 69Z" fill="#005CE6"/>
<path d="M63 90L33 120L33 90L63 90Z" fill="#005CE6"/>
<path d="M102.004 185L79.0039 162L102.004 162L102.004 185Z" fill="#FFC548"/>
<path d="M86 73L72 59L86 59L86 73Z" fill="#FFC548"/>
<circle cx="1377" cy="18" r="3" fill="white"/>
<circle cx="1253" cy="70" r="3" fill="white"/>
<circle cx="1447.5" cy="56.5" r="1.5" fill="white"/>
<circle cx="1260.5" cy="16.5" r="1.5" fill="white"/>
<circle cx="1342.5" cy="104.5" r="1.5" fill="white"/>
<circle cx="975" cy="19" r="3" fill="white"/>
<circle cx="826" cy="42" r="3" fill="white"/>
<circle cx="1053.5" cy="54.5" r="1.5" fill="white"/>
<circle cx="858.5" cy="17.5" r="1.5" fill="white"/>
<circle cx="940.5" cy="105.5" r="1.5" fill="white"/>
<circle cx="723" cy="12" r="3" fill="white"/>
<circle cx="551" cy="36" r="3" fill="white"/>
<circle cx="793.5" cy="50.5" r="1.5" fill="white"/>
<circle cx="606.5" cy="10.5" r="1.5" fill="white"/>
<circle cx="688.5" cy="98.5" r="1.5" fill="white"/>
<circle cx="321" cy="13" r="3" fill="white"/>
<circle cx="113" cy="50" r="3" fill="white"/>
<circle cx="399.5" cy="48.5" r="1.5" fill="white"/>
<circle cx="204.5" cy="11.5" r="1.5" fill="white"/>
<circle cx="286.5" cy="99.5" r="1.5" fill="white"/>
<circle cx="27.5" cy="50.5" r="1.5" fill="white"/>
<g filter="url(#filter0_d_2610_51)">
<path d="M204.561 44.7664C206.917 42.4112 210.736 42.4112 213.092 44.7664L264.886 96.5605C267.242 98.9169 267.242 102.735 264.886 105.092L246.143 123.835H253.551C256.883 123.835 259.584 126.535 259.584 129.867V149.171C259.584 152.502 256.883 155.203 253.551 155.203H163.668C160.336 155.203 157.636 152.502 157.636 149.171V129.867C157.636 126.535 160.336 123.835 163.668 123.835H171.51L152.767 105.092C150.411 102.735 150.411 98.9169 152.767 96.5605L204.561 44.7664Z" fill="white"/>
</g>
<path d="M208.824 76.8672L184.694 100.997L208.824 100.997L208.824 76.8672Z" fill="#FF5B8B"/>
<path d="M208.824 76.8672L232.954 100.997L208.824 100.997L208.824 76.8672Z" fill="#005CE6"/>
<path d="M232.957 100.996L208.827 76.8662L232.957 76.8662L232.957 100.996Z" fill="#FFC548"/>
<path d="M184.695 100.996L208.825 76.8662L184.695 76.8662L184.695 100.996Z" fill="#00E8CD"/>
<path d="M184.695 76.868L208.825 52.7383L232.955 76.868H184.695Z" fill="#121A66"/>
<path d="M232.956 76.8672L257.086 100.997L232.956 125.127L232.956 76.8672Z" fill="#121A66"/>
<path d="M184.696 76.8672L160.566 100.997L184.696 125.127L184.696 76.8672Z" fill="#121A66"/>
<path d="M208.827 100.996C208.827 107.659 203.203 113.061 196.762 113.061C203.203 113.061 208.827 118.463 208.827 125.126C208.827 118.463 214.45 113.061 220.891 113.061C214.45 113.061 208.827 107.659 208.827 100.996Z" fill="#121A66"/>
<path d="M165.217 146.239C164.94 146.239 164.741 146.125 164.62 145.896C164.499 145.666 164.487 145.443 164.584 145.226L169.904 132.594C170.037 132.268 170.266 132.105 170.592 132.105C170.906 132.105 171.129 132.268 171.262 132.594L176.6 145.244C176.709 145.473 176.691 145.697 176.546 145.914C176.413 146.131 176.22 146.239 175.967 146.239C175.641 146.239 175.418 146.095 175.297 145.805L174.103 142.873H167.081L165.869 145.805C165.808 145.95 165.718 146.058 165.597 146.131C165.489 146.203 165.362 146.239 165.217 146.239ZM167.588 141.661H173.596L170.592 134.404L167.588 141.661Z" fill="black"/>
<path d="M179.714 146.239C179.437 146.239 179.232 146.125 179.099 145.896C178.979 145.666 178.972 145.443 179.081 145.226L184.402 132.594C184.534 132.268 184.758 132.105 185.071 132.105C185.397 132.105 185.626 132.268 185.759 132.594L191.098 145.244C191.206 145.473 191.194 145.697 191.061 145.914C190.929 146.131 190.73 146.239 190.464 146.239C190.151 146.239 189.933 146.095 189.813 145.805L185.107 134.44L180.366 145.805C180.306 145.95 180.215 146.058 180.095 146.131C179.986 146.203 179.859 146.239 179.714 146.239Z" fill="black"/>
<path d="M195.144 146.239C194.915 146.239 194.722 146.179 194.565 146.058C194.42 145.926 194.348 145.751 194.348 145.534V132.739C194.348 132.558 194.414 132.407 194.547 132.286C194.679 132.166 194.848 132.105 195.053 132.105C195.259 132.105 195.427 132.166 195.56 132.286C195.693 132.407 195.759 132.558 195.759 132.739V137.752H199.867C200.712 137.752 201.46 137.933 202.111 138.295C202.775 138.657 203.294 139.157 203.668 139.797C204.042 140.424 204.229 141.142 204.229 141.95C204.229 142.795 204.042 143.543 203.668 144.194C203.294 144.834 202.775 145.335 202.111 145.697C201.46 146.058 200.712 146.239 199.867 146.239H195.144ZM195.759 144.955H199.867C200.446 144.955 200.959 144.828 201.406 144.574C201.852 144.309 202.202 143.947 202.455 143.489C202.709 143.03 202.835 142.499 202.835 141.896C202.835 141.003 202.558 140.298 202.003 139.779C201.448 139.26 200.736 139.001 199.867 139.001H195.759V144.955Z" fill="black"/>
<path d="M209.314 146.239C209.121 146.239 208.952 146.173 208.808 146.04C208.675 145.896 208.609 145.727 208.609 145.534V133.39H204.319C204.126 133.39 203.97 133.33 203.849 133.209C203.728 133.089 203.668 132.938 203.668 132.757C203.668 132.564 203.728 132.407 203.849 132.286C203.97 132.166 204.126 132.105 204.319 132.105H214.327C214.52 132.105 214.677 132.166 214.798 132.286C214.918 132.407 214.979 132.564 214.979 132.757C214.979 132.938 214.918 133.089 214.798 133.209C214.677 133.33 214.52 133.39 214.327 133.39H210.02V145.534C210.02 145.727 209.954 145.896 209.821 146.04C209.688 146.173 209.519 146.239 209.314 146.239Z" fill="black"/>
<path d="M214.682 146.239C214.405 146.239 214.206 146.125 214.085 145.896C213.964 145.666 213.952 145.443 214.049 145.226L219.369 132.594C219.502 132.268 219.731 132.105 220.057 132.105C220.371 132.105 220.594 132.268 220.727 132.594L226.065 145.244C226.174 145.473 226.156 145.697 226.011 145.914C225.878 146.131 225.685 146.239 225.432 146.239C225.106 146.239 224.883 146.095 224.762 145.805L223.568 142.873H216.546L215.334 145.805C215.273 145.95 215.183 146.058 215.062 146.131C214.954 146.203 214.827 146.239 214.682 146.239ZM217.053 141.661H223.061L220.057 134.404L217.053 141.661Z" fill="black"/>
<path d="M229.458 146.239C229.265 146.239 229.096 146.173 228.952 146.04C228.807 145.908 228.734 145.739 228.734 145.534V132.811C228.734 132.606 228.807 132.437 228.952 132.305C229.096 132.172 229.265 132.105 229.458 132.105C229.663 132.105 229.826 132.172 229.947 132.305C230.08 132.437 230.146 132.606 230.146 132.811V143.923L239.177 132.359C239.309 132.19 239.49 132.105 239.719 132.105C239.925 132.105 240.093 132.172 240.226 132.305C240.359 132.437 240.425 132.606 240.425 132.811V145.534C240.425 145.739 240.359 145.908 240.226 146.04C240.093 146.173 239.925 146.239 239.719 146.239C239.514 146.239 239.345 146.173 239.213 146.04C239.08 145.908 239.014 145.739 239.014 145.534V134.44L229.983 146.004C229.862 146.161 229.687 146.239 229.458 146.239Z" fill="black"/>
<path d="M244.522 146.239C244.317 146.239 244.148 146.173 244.015 146.04C243.883 145.908 243.816 145.739 243.816 145.534V132.811C243.816 132.606 243.883 132.437 244.015 132.305C244.148 132.172 244.317 132.105 244.522 132.105H248.142C249.034 132.105 249.825 132.305 250.512 132.703C251.2 133.089 251.737 133.626 252.123 134.313C252.509 135.001 252.702 135.797 252.702 136.702C252.702 137.583 252.509 138.367 252.123 139.055C251.737 139.73 251.2 140.267 250.512 140.665C249.825 141.052 249.034 141.245 248.142 141.245H245.228V145.534C245.228 145.739 245.162 145.908 245.029 146.04C244.896 146.173 244.727 146.239 244.522 146.239ZM245.228 139.887H248.142C248.757 139.887 249.306 139.755 249.789 139.489C250.271 139.212 250.645 138.832 250.911 138.349C251.188 137.866 251.327 137.317 251.327 136.702C251.327 136.063 251.188 135.502 250.911 135.019C250.645 134.537 250.271 134.156 249.789 133.879C249.306 133.602 248.757 133.463 248.142 133.463H245.228V139.887Z" fill="black"/>
<path d="M170.217 98.687C170.217 99.1246 170.582 99.4794 171.032 99.4794C171.483 99.4794 171.848 99.1246 171.848 98.687C171.848 98.2493 171.483 97.8945 171.032 97.8945C170.582 97.8945 170.217 98.2493 170.217 98.687Z" fill="white"/>
<path d="M177.557 107.009C177.557 107.665 178.105 108.198 178.781 108.198C179.456 108.198 180.004 107.665 180.004 107.009C180.004 106.352 179.456 105.82 178.781 105.82C178.105 105.82 177.557 106.352 177.557 107.009Z" fill="white"/>
<path d="M212.624 66.5949C212.624 67.2514 213.172 67.7835 213.847 67.7835C214.523 67.7835 215.07 67.2514 215.07 66.5949C215.07 65.9384 214.523 65.4062 213.847 65.4062C213.172 65.4062 212.624 65.9384 212.624 66.5949Z" fill="white"/>
<path d="M241.166 91.5581C241.166 91.9957 241.531 92.3505 241.981 92.3505C242.432 92.3505 242.797 91.9957 242.797 91.5581C242.797 91.1204 242.432 90.7656 241.981 90.7656C241.531 90.7656 241.166 91.1204 241.166 91.5581Z" fill="white"/>
<path d="M235.457 110.573C235.457 111.448 236.187 112.158 237.088 112.158C237.989 112.158 238.719 111.448 238.719 110.573C238.719 109.698 237.989 108.988 237.088 108.988C236.187 108.988 235.457 109.698 235.457 110.573Z" fill="white"/>
<defs>
<filter id="filter0_d_2610_51" x="147" y="43" width="131.652" height="128.203" filterUnits="userSpaceOnUse" color-interpolation-filters="sRGB">
<feFlood flood-opacity="0" result="BackgroundImageFix"/>
<feColorMatrix in="SourceAlpha" type="matrix" values="0 0 0 0 0 0 0 0 0 0 0 0 0 0 0 0 0 0 127 0" result="hardAlpha"/>
<feOffset dx="4" dy="8"/>
<feGaussianBlur stdDeviation="4"/>
<feComposite in2="hardAlpha" operator="out"/>
<feColorMatrix type="matrix" values="0 0 0 0 0 0 0 0 0 0 0 0 0 0 0 0 0 0 0.5 0"/>
<feBlend mode="normal" in2="BackgroundImageFix" result="effect1_dropShadow_2610_51"/>
<feBlend mode="normal" in="SourceGraphic" in2="effect1_dropShadow_2610_51" result="shape"/>
</filter>
</defs>
</svg>
