<svg width="342" height="342" viewBox="0 0 342 342" fill="none" xmlns="http://www.w3.org/2000/svg">
<rect x="170.887" width="241.673" height="241.673" transform="rotate(45 170.887 0)" fill="#FF5B8B"/>
<path d="M134.005 119.5H153.005V112.5H134.005V119.5Z" fill="white"/>
<path d="M163.005 119.5H197.505V112.5H163.005V119.5Z" fill="white"/>
<path d="M134.005 138H197.505V131H134.005V138Z" fill="white"/>
<path d="M134.005 155.5H175.505V148.5H134.005V155.5Z" fill="white"/>
<path d="M134.005 174.5H169.505V167.5H134.005V174.5Z" fill="white"/>
<path d="M134.005 192H148.505V185H134.005V192Z" fill="white"/>
<path d="M157.505 192H169.505V185H157.505V192Z" fill="white"/>
<path d="M134.005 208H164.505V201H134.005V208Z" fill="white"/>
<path fill-rule="evenodd" clip-rule="evenodd" d="M216.207 176H217.005V219.001C217.005 223.32 216.021 228.896 212.951 233.543C209.788 238.331 204.567 241.847 197.005 241.995V242H105.005C104.954 242 104.902 241.999 104.85 241.997C96.2056 241.699 90.4233 237.955 87.0051 232.799C83.7507 227.891 82.9109 222.136 83.0072 217.898C83.0628 215.453 85.0606 213.5 87.5061 213.5H115.006V115.501C115.006 112.42 115.87 106.44 118.628 101.07C121.449 95.5767 126.709 90 135.506 90H227.505C236.048 90 241.269 94.7504 244.034 100.309C246.659 105.583 247.188 111.674 247 115.71C246.889 118.112 244.909 120.001 242.505 120.001H217.005V140.817C220.926 140.465 225.129 140.351 229.623 140.502C230.692 140.538 231.686 141.06 232.321 141.921C232.956 142.781 233.163 143.885 232.883 144.917C230.499 153.694 224.961 166.088 216.207 176ZM124.006 115.501C124.006 113.582 124.642 109.061 126.634 105.181C128.564 101.423 131.303 99 135.506 99H212.215C211.777 99.7413 211.387 100.495 211.041 101.246C208.553 106.663 208.005 112.619 208.005 115.501V142.126C195.388 144.733 186.403 150.16 180.605 157.015C172.388 166.73 170.975 178.895 174.442 188.409C171.72 194.627 170.118 200.977 169.103 205.178L175.907 206.822C176.855 202.9 178.224 197.516 180.416 192.244C191.288 193.028 200.503 189.366 208.005 183.675V219.001C208.005 222.182 207.244 225.854 205.442 228.582C203.802 231.064 201.184 233 196.505 233C191.812 233 189.348 230.917 187.802 228.169C186.083 225.113 185.505 221.112 185.505 218C185.505 215.515 183.491 213.5 181.005 213.5H124.006V115.501ZM219.219 105.004C220.911 101.322 223.384 99 227.505 99C231.962 99 234.409 101.167 235.977 104.318C236.992 106.359 237.57 108.744 237.842 111.001H217.433C217.765 109.094 218.322 106.957 219.219 105.004ZM179.958 232.581C180.037 232.722 180.118 232.861 180.2 233H105.086C99.2791 232.781 96.2468 230.451 94.5061 227.826C93.4475 226.229 92.7727 224.368 92.3933 222.5H176.794C177.205 225.7 178.122 229.316 179.958 232.581ZM223.982 149.538C204.495 157.067 191.365 171.512 183.77 185.343C194.657 185.183 203.575 179.57 210.589 171.783C216.726 164.968 221.21 156.673 223.982 149.538ZM185.949 161.535C190.488 156.169 197.89 151.433 209.043 149.057C195.891 156.913 186.222 167.721 179.674 178.454C179.615 172.857 181.5 166.796 185.949 161.535Z" fill="white"/>
</svg>
