<svg width="284" height="196" viewBox="0 0 284 196" fill="none" xmlns="http://www.w3.org/2000/svg">
<g clip-path="url(#clip0_2963_79)">
<g filter="url(#filter0_f_2963_79)">
<path d="M157 19L147 9L157 9L157 19Z" fill="#005CE6"/>
<path d="M178 94L208 124L178 124L178 94Z" fill="#005CE6"/>
<path d="M261 124L284 101L284 124L261 124Z" fill="#FFC548"/>
<path d="M273 50L250 73L250 50L273 50Z" fill="#FFC548"/>
<path d="M161 71L147 85L147 71L161 71Z" fill="#FFC548"/>
<path d="M232 170L251 151L251 170L232 170Z" fill="#FF5B8B"/>
<path d="M0 40L9 49H0L0 40Z" fill="#FF5B8B"/>
<path d="M204 46L227 23L227 46L204 46Z" fill="#FF5B8B"/>
<path d="M277 149L258 130L277 130L277 149Z" fill="#00E8CD"/>
<path d="M92 0L101 9L92 9V0Z" fill="#00E8CD"/>
<path d="M73 112L81 104L81 112L73 112Z" fill="#005CE6"/>
<path d="M73 108L60 121L60 108L73 108Z" fill="#00E8CD"/>
</g>
<path d="M157 19L147 9L157 9L157 19Z" fill="#005CE6"/>
<path d="M178 94L208 124L178 124L178 94Z" fill="#005CE6"/>
<path d="M261 124L284 101L284 124L261 124Z" fill="#FFC548"/>
<path d="M273 50L250 73L250 50L273 50Z" fill="#FFC548"/>
<path d="M161 71L147 85L147 71L161 71Z" fill="#FFC548"/>
<path d="M232 170L251 151L251 170L232 170Z" fill="#FF5B8B"/>
<path d="M0 40L9 49H0L0 40Z" fill="#FF5B8B"/>
<path d="M204 46L227 23L227 46L204 46Z" fill="#FF5B8B"/>
<path d="M277 149L258 130L277 130L277 149Z" fill="#00E8CD"/>
<path d="M92 0L101 9L92 9V0Z" fill="#00E8CD"/>
<path d="M73 112L81 104L81 112L73 112Z" fill="#005CE6"/>
<path d="M73 108L60 121L60 108L73 108Z" fill="#00E8CD"/>
</g>
<defs>
<filter id="filter0_f_2963_79" x="-30" y="-30" width="344" height="230" filterUnits="userSpaceOnUse" color-interpolation-filters="sRGB">
<feFlood flood-opacity="0" result="BackgroundImageFix"/>
<feBlend mode="normal" in="SourceGraphic" in2="BackgroundImageFix" result="shape"/>
<feGaussianBlur stdDeviation="15" result="effect1_foregroundBlur_2963_79"/>
</filter>
<clipPath id="clip0_2963_79">
<rect width="284" height="196" fill="white"/>
</clipPath>
</defs>
</svg>
