<svg width="342" height="342" viewBox="0 0 342 342" fill="none" xmlns="http://www.w3.org/2000/svg">
<rect x="170.887" width="241.673" height="241.673" transform="rotate(45 170.887 0)" fill="#00E8CE"/>
<path fill-rule="evenodd" clip-rule="evenodd" d="M178 104C178 110.642 175.302 116.655 170.941 121H175.5C176.873 121 178.12 121.803 178.687 123.054C179.255 124.304 179.038 125.771 178.134 126.805C176.852 128.269 175.727 130.509 174.818 133.688C173.916 136.846 173.287 140.72 172.86 145.265C172.039 153.997 172.002 164.751 172 176.901C175.991 178.281 179.765 180.125 183.258 182.368C185.604 180.901 188.097 179.648 190.711 178.635C190.717 176.557 190.735 174.509 190.752 172.495C190.811 165.811 190.866 159.522 190.46 153.899C189.895 146.085 188.476 140.671 185.823 137.702C184.903 136.673 184.674 135.2 185.237 133.94C185.801 132.68 187.052 131.87 188.432 131.87H190.79C187.656 128.277 185.757 123.577 185.757 118.435C185.757 107.152 194.895 98 206.175 98C217.454 98 226.592 107.152 226.592 118.435C226.592 123.577 224.694 128.277 221.56 131.87H223.917C225.29 131.87 226.537 132.672 227.104 133.923C227.672 135.173 227.456 136.639 226.553 137.673C225.576 138.79 224.68 140.545 223.943 143.126C223.213 145.685 222.698 148.844 222.348 152.58C221.683 159.658 221.643 168.361 221.641 178.227C230.074 181.241 237.323 186.735 242.515 193.826H249.5C251.433 193.826 253 195.393 253 197.326V215.5C253 217.433 251.433 219 249.5 219H210V221.5C210 223.433 208.433 225 206.5 225H103.5C101.567 225 100 223.433 100 221.5V199.5C100 197.567 101.567 196 103.5 196H111.672C117.722 187.623 126.165 181.082 136.001 177.38C136.006 174.708 136.03 172.069 136.053 169.476C136.124 161.373 136.191 153.716 135.697 146.878C135.012 137.412 133.287 130.628 129.892 126.834C128.971 125.805 128.741 124.332 129.305 123.071C129.868 121.811 131.12 121 132.5 121H137.059C132.698 116.655 130 110.642 130 104C130 90.7452 140.745 80 154 80C167.255 80 178 90.7452 178 104ZM137 104C137 94.6112 144.611 87 154 87C163.389 87 171 94.6112 171 104C171 113.389 163.389 121 154 121C144.611 121 137 113.389 137 104ZM210 212H246V200.826H240.694C239.525 200.826 238.434 200.243 237.784 199.272C232.955 192.049 225.683 186.609 217.163 184.132C215.669 183.697 214.641 182.327 214.641 180.771V179.837C214.641 169.415 214.641 159.782 215.378 151.926C215.75 147.968 216.318 144.338 217.212 141.205C217.44 140.406 217.693 139.626 217.976 138.87H194.569C196.299 143.122 197.066 148.196 197.442 153.394C197.87 159.323 197.811 166.041 197.751 172.824C197.73 175.211 197.709 177.606 197.709 179.978V181.107C197.709 182.627 196.728 183.973 195.281 184.438C193.223 185.101 191.242 185.937 189.356 186.931C192.46 189.621 195.249 192.665 197.657 196H206.5C208.433 196 210 197.567 210 199.5V212ZM138.815 128H169.386C168.891 129.195 168.462 130.456 168.088 131.765C167.021 135.498 166.338 139.843 165.89 144.61C165.079 153.243 165.007 163.665 165.001 175.008C161.658 174.347 158.202 174 154.664 174C150.66 174 146.759 174.444 143.009 175.286C143.019 173.46 143.035 171.63 143.051 169.806L143.051 169.805C143.124 161.604 143.195 153.517 142.678 146.372C142.192 139.652 141.166 133.213 138.815 128ZM188.651 196C180.235 186.779 168.124 181 154.664 181C141.205 181 129.094 186.779 120.678 196H188.651ZM107 203H203V218H107V203ZM206.175 105C198.768 105 192.757 111.012 192.757 118.435C192.757 125.858 198.768 131.87 206.175 131.87C213.582 131.87 219.592 125.858 219.592 118.435C219.592 111.012 213.582 105 206.175 105Z" fill="white"/>
</svg>
